<svg xmlns="http://www.w3.org/2000/svg" xmlns:xlink="http://www.w3.org/1999/xlink" version="1.1" x="0px" y="0px" viewBox="0 0 90 112.5" enable-background="new 0 0 90 90" xml:space="preserve"><g><g><path d="M39.4,74.1h-0.8l-0.1-0.8V48.1L20.3,27.3l0.4-1l0.7,0l0.2,0.1c3.6,1.7,12.4,2.8,22,2.8c9.6,0,18.5-1.1,22-2.8l0.2-0.1    l0.7,0l0.5,1l-0.3,0.4L48.8,48.1v21.1l-0.4,0.3l-8.8,4.7L39.4,74.1z M23.8,28.8l16.4,18.7l0,0.3V72l7.1-3.8V47.5l0.2-0.2    l16.2-18.5c-4.6,1.2-11.9,2-19.9,2C35.7,30.8,28.3,30,23.8,28.8z"/></g><g><path d="M43.7,30.8c-10.2,0-19.2-1.2-22.9-3.1l-0.1-0.1c-1.3-0.6-2-1.4-2-2.4c0-4.3,16.4-5.5,25-5.5s25,1.1,25,5.5    c0,0.9-0.7,1.7-2.1,2.4C62.9,29.6,53.9,30.8,43.7,30.8z M43.7,21.5c-15.1,0-23.4,2.5-23.4,3.8c0,0.1,0.2,0.5,1.2,0.9l0.1,0.1    c3.4,1.7,12.3,2.8,22.1,2.8c9.8,0,18.7-1.2,22.2-2.9c1-0.5,1.2-0.8,1.2-0.9C67,24,58.8,21.5,43.7,21.5z"/></g></g><g><g><path d="M38.1,41.4c-0.3,0-0.5-0.1-0.7-0.3l-7.4-7.8c-0.4-0.4-0.4-1,0-1.4c0.4-0.4,1-0.4,1.4,0l7.4,7.8c0.4,0.4,0.4,1,0,1.4    C38.6,41.3,38.3,41.4,38.1,41.4z"/></g><g><circle cx="40.6" cy="42.9" r="1.2"/></g></g><text x="0" y="105" fill="#000000" font-size="5px" font-weight="bold" font-family="'Helvetica Neue', Helvetica, Arial-Unicode, Arial, Sans-serif">Created by Yoteyo</text><text x="0" y="110" fill="#000000" font-size="5px" font-weight="bold" font-family="'Helvetica Neue', Helvetica, Arial-Unicode, Arial, Sans-serif">from the Noun Project</text></svg>