<svg xmlns="http://www.w3.org/2000/svg" data-name="Layer 30 copy 3" viewBox="0 0 100 125" x="0px" y="0px"><path d="M89.06,36.12a1.27,1.27,0,0,0,.75-.63,1.24,1.24,0,0,0,0-1l-6-16.68A1.25,1.25,0,0,0,82,17.19c-4.73,2.88-8.74,3.55-11.91,2C63.75,16.08,62.38,5,62.36,4.86a1.25,1.25,0,0,0-1.24-1.11H39.57a1.26,1.26,0,0,0-1.25,1.11c0,.11-1.38,11.22-7.76,14.33-3.17,1.55-7.18.88-11.91-2a1.22,1.22,0,0,0-1.07-.11,1.25,1.25,0,0,0-.76.75l-6,16.68a1.21,1.21,0,0,0,.05,1,1.23,1.23,0,0,0,.74.64c.56.18,13.55,4.64,12.47,26.46,0,.4-.83,10-9.19,13a1.26,1.26,0,0,0-.7,1.76L23,94.15a1.23,1.23,0,0,0,1,.66,1.27,1.27,0,0,0,1.11-.54s3.51-5,9.41-5.55c4.69-.42,9.7,2,14.88,7.16a1.21,1.21,0,0,0,.88.37,1.25,1.25,0,0,0,.89-.37c5.18-5.18,10.18-7.58,14.88-7.16,5.9.54,9.38,5.5,9.41,5.55a1.26,1.26,0,0,0,2.14-.12l8.83-16.86a1.22,1.22,0,0,0,.05-1,1.24,1.24,0,0,0-.75-.72C77.42,72.62,76.63,63,76.6,62.6,75.52,40.76,88.51,36.3,89.06,36.12Zm-15,26.63c0,.45.85,10.66,9.53,14.6l-7.32,14a16,16,0,0,0-9.94-5.1c-5.2-.48-10.58,1.88-16,7-5-4.71-9.9-7.09-14.68-7.09-.45,0-.9,0-1.34.06a16,16,0,0,0-9.95,5.1l-7.31-14c8.68-3.94,9.49-14.15,9.52-14.62,1-20.16-9.37-26.8-13-28.5l5.09-14.15c5,2.69,9.33,3.15,13,1.36,6.36-3.11,8.43-12,9-15.19H60.05c.54,3.16,2.62,12.08,9,15.19,3.66,1.79,8,1.33,13-1.36L87.1,34.23C83.47,35.93,73.1,42.58,74.1,62.75Z"/><path d="M70.72,67.82A1.25,1.25,0,0,0,70,69.41a25,25,0,0,0,2.25,4.75,1.25,1.25,0,0,0,1.07.6,1.2,1.2,0,0,0,.65-.19,1.24,1.24,0,0,0,.41-1.71,22.75,22.75,0,0,1-2-4.28A1.24,1.24,0,0,0,70.72,67.82Z"/><path d="M83.12,31.34,83,31a1.25,1.25,0,0,0-1.63-.68,1.26,1.26,0,0,0-.76,1,27.18,27.18,0,0,0-3,2.76,1.25,1.25,0,0,0,.06,1.77,1.23,1.23,0,0,0,.85.34,1.24,1.24,0,0,0,.91-.39,22,22,0,0,1,3.25-2.9A1.25,1.25,0,0,0,83.12,31.34Z"/><path d="M28.69,49.09a1.23,1.23,0,0,0,1.54.87,1.23,1.23,0,0,0,.87-1.53,33.6,33.6,0,0,0-1.73-4.88,1.25,1.25,0,0,0-2.29,1A30.43,30.43,0,0,1,28.69,49.09Z"/><path d="M44.63,11.31a1,1,0,0,0,.3,0,1.24,1.24,0,0,0,.53-.12h4.37a1.25,1.25,0,0,0,0-2.5H45a1.26,1.26,0,0,0-1.22,1l0,.09A1.25,1.25,0,0,0,44.63,11.31Z"/><path d="M69.54,56.37h0a1.25,1.25,0,0,0-1.25,1.22c0,.35,0,.71,0,1.07v.54a34.42,34.42,0,0,0,.43,5.16,1.25,1.25,0,0,0,1.23,1l.2,0a1.25,1.25,0,0,0,1-1.43,32.12,32.12,0,0,1-.4-4.79v-.51c0-.34,0-.67,0-1A1.26,1.26,0,0,0,69.54,56.37Z"/><path d="M74.67,84.31a1.26,1.26,0,0,0-.88-1.54,34.48,34.48,0,0,0-5.08-1,1.25,1.25,0,1,0-.3,2.48,32.75,32.75,0,0,1,4.72.92,1.23,1.23,0,0,0,1.54-.87Z"/><path d="M69.88,47.42a36.2,36.2,0,0,0-1.16,5,1.24,1.24,0,0,0,1,1.42l.2,0a1.25,1.25,0,0,0,1.23-1.06,33,33,0,0,1,1.08-4.69,1.25,1.25,0,1,0-2.39-.73Z"/><path d="M75,26.18a1.25,1.25,0,0,0,1.49,1c.64-.14,1.29-.32,2-.52l.3.71a1.23,1.23,0,0,0,1.15.77,1.36,1.36,0,0,0,.48-.09,1.26,1.26,0,0,0,.68-1.63l-.74-1.8a1.26,1.26,0,0,0-1.58-.7A22.79,22.79,0,0,1,76,24.7,1.24,1.24,0,0,0,75,26.18Z"/><path d="M47.27,85.87a1.24,1.24,0,0,0-.49-1.7,20.21,20.21,0,0,0-5-1.92,1.25,1.25,0,1,0-.6,2.43,17.55,17.55,0,0,1,4.34,1.68,1.34,1.34,0,0,0,.61.15A1.24,1.24,0,0,0,47.27,85.87Z"/><path d="M75.47,76.55a1.25,1.25,0,0,0,0,1.76,9.33,9.33,0,0,0,.73.65l-.92,1.94A1.25,1.25,0,1,0,77.6,82l1.34-2.85a1.27,1.27,0,0,0-.45-1.59,9,9,0,0,1-1.25-1A1.25,1.25,0,0,0,75.47,76.55Z"/><path d="M23.82,77.92a1.27,1.27,0,0,0,.88.35,1.25,1.25,0,0,0,.89-.37,21.51,21.51,0,0,0,3.19-4.23,1.25,1.25,0,1,0-2.16-1.26,18.61,18.61,0,0,1-2.82,3.74A1.26,1.26,0,0,0,23.82,77.92Z"/><path d="M65.35,24.55A1.25,1.25,0,0,0,66,26.21a15.13,15.13,0,0,0,5.24,1.35h.09a1.25,1.25,0,0,0,.09-2.49A12.48,12.48,0,0,1,67,23.94,1.26,1.26,0,0,0,65.35,24.55Z"/><path d="M37.83,82.85a1.25,1.25,0,0,0-1.21-1.29h-.88a31.92,31.92,0,0,0-4.32.3,1.25,1.25,0,0,0,.17,2.49h.17a28.66,28.66,0,0,1,4-.28h.8A1.27,1.27,0,0,0,37.83,82.85Z"/><path d="M26.54,40.7A1.25,1.25,0,0,0,26.93,39a33.82,33.82,0,0,0-3.12-4.15,1.25,1.25,0,0,0-1.87,1.65,31.63,31.63,0,0,1,2.88,3.85,1.26,1.26,0,0,0,1.06.58A1.24,1.24,0,0,0,26.54,40.7Z"/><path d="M27.9,83.77a1.25,1.25,0,0,0-1.55-.84h0l-1.19-2.53a1.25,1.25,0,1,0-2.26,1.07L24.52,85a1.24,1.24,0,0,0,1.56.64s.37-.13,1-.31A1.25,1.25,0,0,0,27.9,83.77Z"/><path d="M55.11,84.9a1.23,1.23,0,0,0-1.71-.44A18.67,18.67,0,0,0,50,87a1.25,1.25,0,0,0-.76,2.12l.19.19a1.25,1.25,0,0,0,.89.38h0a1.22,1.22,0,0,0,.89-.39,16.51,16.51,0,0,1,3.43-2.71A1.24,1.24,0,0,0,55.11,84.9Z"/><path d="M58.6,17.3A1.26,1.26,0,0,0,58.21,19a22.4,22.4,0,0,0,3.32,4.13,1.28,1.28,0,0,0,.87.34,1.21,1.21,0,0,0,.9-.38,1.25,1.25,0,0,0,0-1.77,19.51,19.51,0,0,1-2.93-3.65A1.25,1.25,0,0,0,58.6,17.3Z"/><path d="M30.92,68.87a29.28,29.28,0,0,0,1.17-5.07,1.25,1.25,0,1,0-2.47-.36,27.2,27.2,0,0,1-1.08,4.65,1.26,1.26,0,0,0,.8,1.58,1.32,1.32,0,0,0,.39.06A1.24,1.24,0,0,0,30.92,68.87Z"/><path d="M76.08,37.76a1.26,1.26,0,0,0-1.74.33,34,34,0,0,0-2.58,4.5A1.25,1.25,0,1,0,74,43.67a31.3,31.3,0,0,1,2.4-4.17A1.25,1.25,0,0,0,76.08,37.76Z"/><path d="M54.77,11.23a31.54,31.54,0,0,0,1.08,3.13,1.23,1.23,0,0,0,1.16.78,1.35,1.35,0,0,0,.47-.09,1.25,1.25,0,0,0,.69-1.62A27.13,27.13,0,0,1,57,9.71a1.24,1.24,0,0,0-1.22-1h-.9a1.25,1.25,0,0,0-.06,2.5Z"/><path d="M32.1,25.91a1.24,1.24,0,0,0,1.17.81,1.41,1.41,0,0,0,.44-.08,15.62,15.62,0,0,0,4.63-2.76A1.25,1.25,0,1,0,36.72,22a13,13,0,0,1-3.89,2.33A1.24,1.24,0,0,0,32.1,25.91Z"/><path d="M40.14,20.23a1.26,1.26,0,0,0,.71.22,1.25,1.25,0,0,0,1-.54,27.4,27.4,0,0,0,2.54-4.57,1.25,1.25,0,0,0-2.28-1,25.46,25.46,0,0,1-2.31,4.17A1.25,1.25,0,0,0,40.14,20.23Z"/><path d="M20.24,33a1.25,1.25,0,0,0,0-1.54l1.3-3.16a1.25,1.25,0,0,0-2.32-1l-1.65,4,0,.11a1.24,1.24,0,0,0,.49,1.4s.21.14.47.35a1.29,1.29,0,0,0,.76.26A1.23,1.23,0,0,0,20.24,33Z"/><path d="M22.24,25.35a1.24,1.24,0,0,0,.88,1.53,19.79,19.79,0,0,0,5.16.72h.12a1.21,1.21,0,0,0,1.19-1.26,1.29,1.29,0,0,0-1.3-1.24h0a17.43,17.43,0,0,1-4.51-.63A1.24,1.24,0,0,0,22.24,25.35Z"/><path d="M32.12,53.49a1.27,1.27,0,0,0-1.4-1.08,1.26,1.26,0,0,0-1.08,1.4,38.31,38.31,0,0,1,.3,4.83,1.25,1.25,0,0,0,1.25,1.25h0a1.24,1.24,0,0,0,1.24-1.25A41.64,41.64,0,0,0,32.12,53.49Z"/><path d="M64.81,82.77a1.25,1.25,0,0,0-1.31-1.19,24.67,24.67,0,0,0-5.2.82A1.25,1.25,0,0,0,59,84.81a22.35,22.35,0,0,1,4.67-.73A1.24,1.24,0,0,0,64.81,82.77Z"/><text x="0" y="115" fill="#000000" font-size="5px" font-weight="bold" font-family="'Helvetica Neue', Helvetica, Arial-Unicode, Arial, Sans-serif">Created by Lars Meiertoberens</text><text x="0" y="120" fill="#000000" font-size="5px" font-weight="bold" font-family="'Helvetica Neue', Helvetica, Arial-Unicode, Arial, Sans-serif">from the Noun Project</text></svg>