<svg xmlns="http://www.w3.org/2000/svg" data-name="Layer 2" viewBox="0 0 64 80" x="0px" y="0px"><path d="M44.06641,6.65759h-.00879a15.749,15.749,0,0,0-11.28907,4.74518l-.77606.78925-.779-.79218a15.78167,15.78167,0,0,0-22.56641.00293,16.39034,16.39034,0,0,0,0,22.86823L30.9234,56.89893a1.50122,1.50122,0,0,0,2.13818,0L55.34033,34.269a16.35315,16.35315,0,0,0-.00244-22.86627A15.71817,15.71817,0,0,0,44.06641,6.65759ZM53.19922,32.166,31.99249,53.70782,10.78723,32.168a13.37547,13.37547,0,0,1-.001-18.66126,12.78142,12.78142,0,0,1,18.29059,0l1.84607,1.87641a1.54233,1.54233,0,0,0,2.13916,0l1.84412-1.87445a12.76848,12.76848,0,0,1,9.15143-3.85041h.00732a12.7381,12.7381,0,0,1,9.13379,3.84845A13.35206,13.35206,0,0,1,53.19922,32.166Z"/><path d="M12.92542,15.61169a10.35441,10.35441,0,0,0-.002,14.44843l2.14105-2.10205a7.3404,7.3404,0,0,1,0-10.24243Z"/><text x="0" y="79" fill="#000000" font-size="5px" font-weight="bold" font-family="'Helvetica Neue', Helvetica, Arial-Unicode, Arial, Sans-serif">Created by Barudak Lier</text><text x="0" y="84" fill="#000000" font-size="5px" font-weight="bold" font-family="'Helvetica Neue', Helvetica, Arial-Unicode, Arial, Sans-serif">from the Noun Project</text></svg>