<svg xmlns="http://www.w3.org/2000/svg" xmlns:xlink="http://www.w3.org/1999/xlink" version="1.1" x="0px" y="0px" viewBox="0 0 100 125" style="enable-background:new 0 0 100 100;" xml:space="preserve"><path d="M88.7,29.6c-4-6-10.8-10.1-17-10.1c-1.4,0-2.8-0.9-3.4-2.2C66,12.7,60.5,5,49.6,5S33.3,12.7,31,17.3  c-0.7,1.4-2,2.2-3.4,2.2c-6.2,0-13,4.1-17,10.1c-4.5,6.8-5,15.1-1.4,23.5c5.9,13.7,17.1,15.5,23.6,15.4c4.4,2.9,8.5,3.6,11.1,3.8  c0.7,0,1.2,0.6,1.2,1.3v17c0,2.5,2,4.5,4.5,4.5H50c2.5,0,4.5-2,4.5-4.5v-17c0-0.7,0.5-1.2,1.2-1.3c2.5-0.1,6.5-0.9,10.8-3.7  c0.2,0,0.4,0,0.7,0c6.5,0,17.2-2.2,22.8-15.4C93.6,44.7,93.1,36.4,88.7,29.6z M55.7,69.7c-2,0.1-3.6,1.8-3.6,3.8v17c0,1.1-0.9,2-2,2  h-0.4c-1.1,0-2-0.9-2-2v-17c0-2-1.6-3.7-3.6-3.8c-3.5-0.1-10-1.5-15.7-9c2-0.6,5.9-1.6,10.6-1.6c0.2,0,0.4,0,0.6,0  c1.6,0,3.1-1.2,3.3-2.8c0.5-2.7,1.9-7.7,6.8-11.2c4.8,3.5,6.3,8.5,6.8,11.2c0.3,1.6,1.7,2.8,3.3,2.8c0,0,0,0,0.1,0  c5-0.1,9.1,0.9,11.2,1.6C65.4,68.1,59,69.5,55.7,69.7z M87.7,52.1c-4.4,10.2-12.1,13.1-17.9,13.7c1.3-1.2,2.5-2.6,3.7-4.3  c0.3-0.5,0.4-1.1,0.3-1.7c-0.2-0.6-0.6-1-1.2-1.2c-1.8-0.6-6.4-2-12.3-2c-0.2,0-0.4,0-0.6,0c-0.4,0-0.8-0.3-0.8-0.7v0  c-0.5-3.2-2.3-9.1-8.2-13.1c-0.7-0.5-1.5-0.5-2.2,0c-5.9,4-7.6,9.9-8.2,13.1c-0.1,0.4-0.5,0.8-0.9,0.7c-6.1-0.1-11,1.3-12.9,2  c-0.6,0.2-1,0.6-1.2,1.2c-0.2,0.6-0.1,1.2,0.3,1.7c1.2,1.7,2.5,3.1,3.8,4.3c-5.8-0.6-13.6-3.5-18-13.8C8.3,44.5,8.7,37,12.7,31  c3.5-5.3,9.5-8.9,14.9-8.9c2.4,0,4.6-1.4,5.7-3.6c2-4.1,6.8-10.9,16.4-10.9S64,14.3,66,18.4c1.1,2.2,3.3,3.6,5.7,3.6  c5.4,0,11.3,3.6,14.9,8.9C90.5,37,91,44.5,87.7,52.1z"/><text x="0" y="115" fill="#000000" font-size="5px" font-weight="bold" font-family="'Helvetica Neue', Helvetica, Arial-Unicode, Arial, Sans-serif">Created by Agniraj Chatterji</text><text x="0" y="120" fill="#000000" font-size="5px" font-weight="bold" font-family="'Helvetica Neue', Helvetica, Arial-Unicode, Arial, Sans-serif">from the Noun Project</text></svg>